<svg xmlns="http://www.w3.org/2000/svg" viewBox="0 0 800 400" width="100%" height="100%">
  <defs>
    <linearGradient id="skyGrad" x1="0%" y1="0%" x2="0%" y2="100%">
      <stop offset="0%" stop-color="#3A8BD4" />
      <stop offset="100%" stop-color="#87CEEB" />
    </linearGradient>
    <linearGradient id="hillGrad" x1="0%" y1="0%" x2="0%" y2="100%">
      <stop offset="0%" stop-color="#81C784" />
      <stop offset="100%" stop-color="#4CAF50" />
    </linearGradient>
    <linearGradient id="titleBarGrad" x1="0%" y1="0%" x2="0%" y2="100%">
      <stop offset="0%" stop-color="#3A6EA5" />
      <stop offset="100%" stop-color="#0A246A" />
    </linearGradient>
    <filter id="glassBlur">
      <feGaussianBlur stdDeviation="10" result="blur" />
      <feColorMatrix type="matrix" values="1 0 0 0 0  0 1 0 0 0  0 0 1 0 0  0 0 0 18 -7" result="glow" />
      <feComposite in="SourceGraphic" in2="glow" operator="over" />
    </filter>
  </defs>

  <style>
    .font-xp { font-family: 'Trebuchet MS', 'Segoe UI', Tahoma, sans-serif; }
    .glass-panel { fill: rgba(255,255,255,0.25); stroke: rgba(255,255,255,0.5); stroke-width: 1; }
    .title-text { font-size: 14px; fill: white; font-weight: bold; }
    .main-text { font-size: 32px; fill: #1A1A2E; font-weight: bold; }
    .sub-text { font-size: 18px; fill: #1A1A2E; }
    @media (prefers-color-scheme: dark) {
      .main-text { fill: #f0f0f0; }
      .sub-text { fill: #e0e0e0; }
      .glass-panel { fill: rgba(0,0,0,0.4); stroke: rgba(255,255,255,0.2); }
    }
  </style>

  <!-- XP Window Outer Frame -->
  <rect x="0" y="0" width="800" height="400" rx="8" ry="8" fill="#ECE9D8" stroke="#0055EA" stroke-width="2"/>
  
  <!-- Content Background (Bliss) -->
  <rect x="2" y="32" width="796" height="366" fill="url(#skyGrad)"/>
  <ellipse cx="600" cy="80" rx="40" ry="40" fill="#FFD700" opacity="0.8"/>
  <path d="M-50,300 Q150,220 400,280 T850,250 L850,398 L-50,398 Z" fill="url(#hillGrad)"/>
  <path d="M-50,350 Q200,260 500,320 T850,290 L850,398 L-50,398 Z" fill="#388E3C" opacity="0.6"/>

  <!-- XP Title Bar -->
  <path d="M2,8 Q2,2 8,2 L792,2 Q798,2 798,8 L798,32 L2,32 Z" fill="url(#titleBarGrad)"/>
  <text x="12" y="22" class="font-xp title-text">edav404.exe</text>
  
  <!-- Window Controls -->
  <rect x="730" y="6" width="20" height="20" rx="2" ry="2" fill="#3A6EA5" stroke="white" stroke-width="1"/>
  <line x1="734" y1="22" x2="746" y2="22" stroke="white" stroke-width="2"/>
  <rect x="755" y="6" width="20" height="20" rx="2" ry="2" fill="#3A6EA5" stroke="white" stroke-width="1"/>
  <rect x="759" y="10" width="12" height="10" fill="none" stroke="white" stroke-width="2"/>
  <rect x="780" y="6" width="20" height="20" rx="2" ry="2" fill="#E81123" stroke="white" stroke-width="1"/>
  <line x1="784" y1="10" x2="796" y2="22" stroke="white" stroke-width="2"/>
  <line x1="796" y1="10" x2="784" y2="22" stroke="white" stroke-width="2"/>

  <!-- Liquid Glass Panel -->
  <rect x="100" y="100" width="600" height="200" rx="15" ry="15" class="glass-panel" filter="url(#glassBlur)"/>
  <rect x="100" y="100" width="600" height="200" rx="15" ry="15" fill="none" stroke="rgba(255,255,255,0.8)" stroke-width="2"/>

  <!-- Text Content -->
  <text x="400" y="180" class="font-xp main-text" text-anchor="middle">Emmanuel (@edav404)</text>
  <text x="400" y="220" class="font-xp sub-text" text-anchor="middle">Spec-driven &amp; creative problem solver</text>
  <text x="400" y="250" class="font-xp sub-text" text-anchor="middle">📍 Colombia</text>
  
</svg>
